# xmcd
#
# Track frame offsets:
#	150
#	16488
#	40820
#
# Disc length: 798 seconds
#
# Revision: 0
# Processed by: cddbd v1.4PL0 Copyright (c) Steve Scherf et al.
# Submitted via: EasyCDDAExtractor 4.6.9.1
#
DISCID=1b031c03
DTITLE=ZZ Top - Give It Up (single)
DYEAR=1990
DGENRE=Blues
TTITLE0=Give It Up
TTITLE1=Cheap Sunglasses (Live)
TTITLE2=Sharp Dressed Man
EXTD=
EXTT0=
EXTT1=
EXTT2=
PLAYORDER=
